Coordinates
version=1
nRows=16
nColumns=40
inDegrees=yes

Units are S.I. units (second, meters, Newtons, ...)
Angles are in degrees.

endheader
time	pelvis_tilt	pelvis_list	pelvis_rotation	pelvis_tx	pelvis_ty	pelvis_tz	hip_flexion_r	hip_adduction_r	hip_rotation_r	knee_angle_r	knee_angle_r_beta	ankle_angle_r	subtalar_angle_r	mtp_angle_r	hip_flexion_l	hip_adduction_l	hip_rotation_l	knee_angle_l	knee_angle_l_beta	ankle_angle_l	subtalar_angle_l	mtp_angle_l	lumbar_extension	lumbar_bending	lumbar_rotation	arm_flex_r	arm_add_r	arm_rot_r	elbow_flex_r	pro_sup_r	wrist_flex_r	wrist_dev_r	arm_flex_l	arm_add_l	arm_rot_l	elbow_flex_l	pro_sup_l	wrist_flex_l	wrist_dev_l
     54.77000000	     -4.04711401	     -3.34566492	     -6.62423348	      0.91388457	      0.92127922	      0.53804997	     21.47826653	      2.48290394	     -5.60157205	     24.85373652	     24.85373652	      9.27251707	     -3.28145957	     -4.61516964	      1.98333140	     -8.06824461	     -7.73019371	     27.02997563	     27.02997563	     18.92582496	    -10.78650148	     -1.07988988	     -8.80042127	      7.36916854	     -0.39572453	     -0.90850830	    -13.03973347	    -18.67571323	     35.44364191	     46.49404721	      0.00000000	      0.00000000	     29.84885581	    -16.52269893	    -12.15164581	     72.19661382	     48.05197102	      0.00000000	      0.00000000
     54.78885714	     -4.02205548	     -3.44208107	     -5.91606433	      0.91420260	      0.92223422	      0.54191947	     20.72295473	      2.62510147	     -6.36895333	     24.41992703	     24.41992703	      9.72878624	     -2.92586581	     -4.27088041	      3.47946495	     -8.81690916	     -7.10093014	     30.18350173	     30.18350173	     17.14510074	    -11.86098801	     -3.44724188	     -8.73939289	      7.38901789	     -0.01507750	      0.16973394	    -13.62536290	    -16.88286110	     36.45531803	     46.32428520	      0.00000000	      0.00000000	     29.81052736	    -15.83179353	     -9.63593258	     69.41273183	     47.80895594	      0.00000000	      0.00000000
     54.80771429	     -3.91168063	     -3.62238804	     -5.15492980	      0.91435205	      0.92333006	      0.54556953	     19.78553265	      2.85694264	     -7.18506511	     23.79036314	     23.79036314	     10.00599218	     -2.65484241	     -4.27180786	      5.17765838	     -9.62343944	     -6.36286540	     33.79124886	     33.79124886	     15.98537837	    -12.85376293	     -3.78870064	     -8.88842451	      7.46547245	     -0.08139214	      1.84436399	    -13.86420364	    -16.72200196	     37.10489437	     46.29852461	      0.00000000	      0.00000000	     28.82193645	    -14.94304738	     -9.01041465	     68.53317198	     47.74039229	      0.00000000	      0.00000000
     54.82657143	     -3.89237945	     -3.78327686	     -4.36790974	      0.91431961	      0.92421799	      0.54897407	     18.94177766	      3.05967404	     -8.10170363	     23.11321729	     23.11321729	     10.24779114	     -2.25722531	     -4.31761525	      7.18118422	    -10.37473220	     -5.57495357	     37.57820877	     37.57820877	     14.66899044	    -14.05827709	     -3.92589670	     -8.87041767	      7.56307130	     -0.20277473	      3.56011300	    -14.11864411	    -16.40757427	     37.62911034	     46.26896223	      0.00000000	      0.00000000	     27.65790035	    -14.13074162	     -8.13424044	     67.09476099	     47.64305419	      0.00000000	      0.00000000
     54.84542857	     -3.79702414	     -3.84733178	     -3.56811364	      0.91411704	      0.92515217	      0.55207342	     18.08418129	      3.10318000	     -9.17232074	     22.53529151	     22.53529151	     10.49394070	     -1.55117047	     -4.67409369	      9.21930643	    -10.89738584	     -4.71397300	     41.36221068	     41.36221068	     13.58621200	    -15.52392649	     -2.80517927	     -8.85815432	      7.52068466	     -0.12091534	      5.43755826	    -14.61044465	    -14.90124481	     37.41917899	     46.19387256	      0.00000000	      0.00000000	     27.11934822	    -13.52078727	     -5.92875085	     63.61587896	     47.41499910	      0.00000000	      0.00000000
     54.86428571	     -3.68724101	     -4.01108265	     -2.78317967	      0.91378279	      0.92599749	      0.55509082	     17.18004649	      3.35599709	     -9.97740496	     21.84787432	     21.84787432	     10.62036282	     -1.34964728	     -4.91813671	     11.41504599	    -11.55429659	     -4.01281361	     45.30967097	     45.30967097	     13.37111170	    -16.40725546	      0.25536287	     -8.93087815	      7.56850814	      0.18134609	      7.01362181	    -15.19258107	    -13.40316876	     37.64610639	     46.09479789	      0.00000000	      0.00000000	     26.22705091	    -12.64251615	     -4.07453904	     60.93908945	     47.21842685	      0.00000000	      0.00000000
     54.88314286	     -3.53872599	     -4.12895204	     -1.98674911	      0.91337473	      0.92677884	      0.55788192	     16.30589772	      3.56088800	    -10.73509156	     21.28321658	     21.28321658	     10.85820616	     -1.15564234	     -5.03265624	     13.54951039	    -12.08746282	     -3.32953489	     48.91281067	     48.91281067	     12.86669104	    -17.51776733	      2.83771944	     -9.05734735	      7.58781560	      0.00382610	      8.96152620	    -15.37247774	    -12.85039758	     38.02654976	     46.05590613	      0.00000000	      0.00000000	     24.84530251	    -12.00450327	     -2.96531305	     58.31189292	     47.08118794	      0.00000000	      0.00000000
     54.90200000	     -3.32415952	     -4.37044291	     -1.20417513	      0.91292338	      0.92732771	      0.56062644	     15.43807770	      3.94015321	    -11.39275337	     20.82524608	     20.82524608	     11.10239071	     -1.26086351	     -5.00130666	     15.58009820	    -12.87108844	     -2.93238054	     52.18339627	     52.18339627	     12.09347239	    -18.38589931	      3.65420677	     -9.29470558	      7.67666135	      0.22470458	     10.59774405	    -15.69024466	    -12.77555149	     38.55111695	     46.04188307	      0.00000000	      0.00000000	     23.10728322	    -11.03374896	     -2.33214074	     56.94438713	     46.99716424	      0.00000000	      0.00000000
     54.92085714	     -3.15203421	     -4.38311073	     -0.42552443	      0.91224897	      0.92781583	      0.56295416	     14.71812419	      4.08629707	    -11.82265272	     20.49373780	     20.49373780	     11.29778681	     -1.56933417	     -5.16219764	     17.90556604	    -13.07365815	     -2.10194897	     55.65924250	     55.65924250	     14.20569893	    -18.59489295	     12.05684205	     -9.37428310	      7.54327240	      0.44247128	     12.33627614	    -16.01796240	    -11.95922719	     38.63602283	     45.99347906	      0.00000000	      0.00000000	     22.31444331	    -10.33159828	     -0.25745389	     52.17995110	     46.75996625	      0.00000000	      0.00000000
     54.93971429	     -2.90210241	     -4.46418089	      0.33402619	      0.91155950	      0.92808543	      0.56529302	     14.03154323	      4.36247590	    -12.01577791	     20.35553324	     20.35553324	     11.57828198	     -2.36422932	     -5.07652204	     19.86690501	    -13.45917425	     -1.55265751	     58.25383759	     58.25383759	     14.50341576	    -18.97071820	     14.82798486	     -9.60972841	      7.45832497	      0.45683434	     14.19337416	    -16.12355536	    -11.78562248	     39.11814403	     45.97270801	      0.00000000	      0.00000000	     20.86340847	     -9.66593019	      0.73393615	     48.68779794	     46.62371584	      0.00000000	      0.00000000
     54.95857143	     -2.68275887	     -4.57509375	      1.09153211	      0.91071743	      0.92799621	      0.56747156	     13.50878950	      4.63400953	    -12.29160583	     20.43302619	     20.43302619	     11.91417226	     -3.01637942	     -5.06229767	     21.76229162	    -13.82954618	     -0.98612152	     60.31118408	     60.31118408	     14.28420595	    -19.20282148	     15.52247345	     -9.88088698	      7.39685496	      0.36203742	     15.98375781	    -16.13439269	    -11.84064049	     40.05021236	     45.95017225	      0.00000000	      0.00000000	     18.74735380	     -9.19504684	      1.22837876	     46.66306251	     46.53738539	      0.00000000	      0.00000000
     54.97742857	     -2.43146470	     -4.49534242	      1.79529102	      0.90971168	      0.92778095	      0.56938611	     13.10979762	      4.78672985	    -12.00267875	     20.74926926	     20.74926926	     12.29365719	     -4.58171329	     -4.78320888	     23.58223132	    -13.73923763	     -0.25414651	     62.04017140	     62.04017140	     15.20553910	    -19.32599189	     19.17004790	    -10.12804241	      7.11734947	      0.52373133	     17.65440975	    -16.25447729	    -11.80972548	     40.93479639	     45.92015511	      0.00000000	      0.00000000	     17.80208347	     -8.47280903	      2.35697907	     41.44039837	     46.37676069	      0.00000000	      0.00000000
     54.99628571	     -2.24619941	     -4.44552816	      2.51578417	      0.90851625	      0.92700862	      0.57112575	     12.96276760	      4.86165558	    -12.03750851	     21.40825099	     21.40825099	     12.76393155	     -5.69354466	     -4.79283467	     25.30913471	    -13.60651989	      0.50787560	     63.12316168	     63.12316168	     15.13841555	    -19.41598576	     19.56742612	    -10.40479360	      6.86971412	      0.22432179	     19.56195208	    -16.06390408	    -11.94938043	     42.35589035	     45.88311824	      0.00000000	      0.00000000	     15.58007429	     -8.26609398	      2.76562091	     39.10459854	     46.29148806	      0.00000000	      0.00000000
     55.01514286	     -2.06151722	     -4.31556707	      3.18693488	      0.90714219	      0.92597756	      0.57267569	     12.93042308	      4.90203414	    -11.73660051	     22.23818491	     22.23818491	     13.26703354	     -7.32925423	     -4.59644037	     26.90461050	    -13.25587385	      1.28775303	     63.71108379	     63.71108379	     15.22369624	    -19.46564588	     20.31063615	    -10.70996785	      6.53174804	     -0.04979848	     21.43730334	    -15.87474667	    -12.05691413	     44.00147067	     45.83532812	      0.00000000	      0.00000000	     13.64175386	     -8.05722442	      3.23590860	     36.01834049	     46.19848857	      0.00000000	      0.00000000
     55.03400000	     -1.88943736	     -4.25189258	      3.82363756	      0.90560173	      0.92468735	      0.57409350	     13.00561258	      5.02129023	    -11.39389029	     23.22433549	     23.22433549	     13.92905078	     -8.99867937	     -3.79037547	     28.39566353	    -12.86854376	      2.13427873	     63.81048036	     63.81048036	     15.54416185	    -19.48850475	     21.62617601	    -11.01091793	      6.26765182	      0.56136884	     22.52360762	    -16.35035734	    -12.26390959	     46.63209421	     45.74911480	      0.00000000	      0.00000000	     12.91080857	     -7.35326293	      3.99604310	     30.87892444	     46.07876694	      0.00000000	      0.00000000
     55.05285714	     -1.79365549	     -4.11040316	      4.45891623	      0.90391866	      0.92291665	      0.57524527	     13.27096696	      4.95152625	    -11.29937599	     24.42176534	     24.42176534	     14.51537790	    -10.34779690	     -3.75847961	     29.79047892	    -12.37239578	      2.86010896	     63.36345900	     63.36345900	     15.44164451	    -19.50836553	     21.67780483	    -11.28551567	      5.92882051	      0.23782974	     24.57166240	    -16.14245896	    -12.40612187	     48.59657687	     45.69366058	      0.00000000	      0.00000000	     10.62653687	     -7.40693865	      4.20282056	     28.94115070	     46.01090582	      0.00000000	      0.00000000
